<svg width="22" height="22" viewBox="0 0 22 22" fill="none" xmlns="http://www.w3.org/2000/svg">
<path d="M18.333 5.271H12.833C12.4572 5.271 12.1455 4.95933 12.1455 4.5835C12.1455 4.20766 12.4572 3.896 12.833 3.896H18.333C18.7088 3.896 19.0205 4.20766 19.0205 4.5835C19.0205 4.95933 18.7088 5.271 18.333 5.271Z" fill="white"/>
<path d="M15.583 8.021H12.833C12.4572 8.021 12.1455 7.70933 12.1455 7.3335C12.1455 6.95766 12.4572 6.646 12.833 6.646H15.583C15.9588 6.646 16.2705 6.95766 16.2705 7.3335C16.2705 7.70933 15.9588 8.021 15.583 8.021Z" fill="white"/>
<path d="M10.5413 19.9377C5.36217 19.9377 1.14551 15.721 1.14551 10.5418C1.14551 5.36266 5.36217 1.146 10.5413 1.146C10.9172 1.146 11.2288 1.45766 11.2288 1.8335C11.2288 2.20933 10.9172 2.521 10.5413 2.521C6.11384 2.521 2.52051 6.1235 2.52051 10.5418C2.52051 14.9602 6.11384 18.5627 10.5413 18.5627C14.9688 18.5627 18.5622 14.9602 18.5622 10.5418C18.5622 10.166 18.8738 9.85433 19.2497 9.85433C19.6255 9.85433 19.9372 10.166 19.9372 10.5418C19.9372 15.721 15.7205 19.9377 10.5413 19.9377Z" fill="white"/>
<path d="M20.167 20.854C19.9928 20.854 19.8186 20.7898 19.6811 20.6523L17.8478 18.819C17.582 18.5532 17.582 18.1132 17.8478 17.8473C18.1136 17.5815 18.5536 17.5815 18.8195 17.8473L20.6528 19.6807C20.9186 19.9465 20.9186 20.3865 20.6528 20.6523C20.5153 20.7898 20.3411 20.854 20.167 20.854Z" fill="white"/>
</svg>
